<?xml version="1.0" encoding="utf-8"?>
<!-- Generator: Adobe Illustrator 24.3.0, SVG Export Plug-In . SVG Version: 6.00 Build 0)  -->
<svg version="1.1" id="Layer_1" xmlns="http://www.w3.org/2000/svg" xmlns:xlink="http://www.w3.org/1999/xlink" x="0px" y="0px"
	 viewBox="0 0 204 114" style="enable-background:new 0 0 204 114;" xml:space="preserve">
<g>
	<g>
		<path d="M40.3,1l-7.8,6.1h-19v28.8c0,1,0.3,2,0.8,2.8c0.5,0.8,1.1,1.3,1.8,1.5v0.1H4v-0.1c1.8-0.7,2.7-2.1,2.7-4.3V7.1
			c-1.3,0-2.5,0.4-3.5,1.2c-1,0.9-1.6,2-1.7,3.3H1.5V1H40.3z"/>
		<path d="M37.4,40.3h-7.2V20.7c0-1.3-0.5-1.9-1.5-1.9c-1,0-1.5,0.7-1.5,2v17.3c0,1,0.4,1.7,1.3,2.1v0.2h-7.6V9
			c0-1.2-0.4-1.8-1.3-1.9V6.9L27.1,1v14.6c1.3-1.3,2.8-1.9,4.7-1.9c1.2,0,2.3,0.4,3,1.1S36,16.6,36,18v20.2c0,1,0.4,1.6,1.3,1.9
			V40.3z"/>
		<path d="M53.8,34.7c0,3.7-1.5,5.6-4.6,5.6h-7.6c-2.1,0-3.2-1-3.2-3.1V17c0-0.9,0.3-1.6,1-2.2c0.7-0.5,1.4-0.8,2.4-0.8h8.8
			c0.8,0,1.5,0.2,2,0.7c0.6,0.5,0.9,1.3,0.9,2.1v5.7c0,1.2-0.6,2.3-1.8,3.3l-5.1,4.2c-1.2,1-1.7,1.9-1.7,2.7c0,1.3,1,1.9,2.8,1.9
			h1.7c2,0,3.3-0.7,3.8-2.2l0.2,0C53.7,33.1,53.8,33.8,53.8,34.7z M47.2,20.6v-0.4c0-1.2-0.4-1.7-1.3-1.7c-0.9,0-1.3,0.7-1.3,1.9
			v4.1l1.5-1.2C46.9,22.7,47.2,21.8,47.2,20.6z"/>
	</g>
	<g>
		<path d="M24.1,93.4c0,4.5-2,6.8-5.9,6.8H1.5v-0.1c2.3-0.9,3.4-2.7,3.4-5.5V55.4c0-2.8-0.9-4.5-2.7-5v-0.2h14.7
			c2.7,0,4.7,0.6,5.8,1.9c1,1.1,1.5,3,1.5,5.5V93.4z M15.6,90.3V61.5c0-1.4-0.7-2.1-2-2.1v33.5c0.8,0,1.3-0.1,1.5-0.4
			C15.4,92.1,15.6,91.4,15.6,90.3z M52.4,50.3L42.5,58H25.1v-1.7c0-3.1-1.3-5.2-3.7-6.1H52.4z"/>
		<path d="M46.2,74.2l0,18.8c0,3.5-1.1,5.8-3.3,6.8c-1.1,0.5-3.1,0.7-6.2,0.7c-3.2,0-5.3-0.2-6.3-0.6c-2.2-1-3.3-3.2-3.3-6.8l0-19
			c0-3.3,1-5.6,3-6.8c1.4-0.8,3.6-1.2,6.6-1.2c3.2,0,5.4,0.4,6.6,1.1C45.2,68.5,46.2,70.8,46.2,74.2z M38.1,90.5V77.4
			c0-1.4-0.5-2.1-1.4-2.1c-1,0-1.6,0.7-1.6,2.1v13.1c0,1,0.5,1.5,1.5,1.5C37.6,92,38.1,91.5,38.1,90.5z"/>
		<path d="M68.5,66.8c-0.7,1.1-1,2.4-1,4v34c0,3.7-0.9,6-2.8,7.1c-1.1,0.7-3.4,1-6.9,1.1c-3.3,0-5.5-0.4-6.7-1.3
			c-1.2-1-1.9-2.8-1.9-5.6l0-4.6l7.2,3.5v0.8c0,1.4,0.4,2.1,1.1,2.1c0.7,0,1-0.7,1-2.1v-5.7c-1.3,0.3-2.5,0.5-3.7,0.5
			c-2.9,0-4.8-1.1-5.7-3.2c-0.4-1-0.6-2.6-0.6-4.9l0-17.6c0-5.6,2.1-8.4,6.2-8.4c2.4,0,4,0.8,4.8,2.3c0.2-0.8,0.4-1.4,0.8-1.9H68.5z
			 M59.4,91.6v-15c0-1.2-0.4-1.8-1.1-1.8h-0.3c-0.8,0-1.2,0.6-1.2,1.8v15c0,1,0.4,1.5,1.1,1.5h0.4C59,93.1,59.4,92.6,59.4,91.6z"/>
		<path d="M89.9,93.1c0,4.8-2,7.1-5.8,7.1h-9.6c-2.7,0-4-1.3-4-3.9V70.6c0-1.2,0.4-2.1,1.2-2.8c0.8-0.7,1.8-1,3-1h11.2
			c1,0,1.9,0.3,2.6,0.9c0.7,0.7,1.1,1.6,1.1,2.7v7.2c0,1.6-0.7,3-2.2,4.2l-6.5,5.4c-1.5,1.2-2.2,2.4-2.2,3.4c0,1.6,1.2,2.4,3.6,2.4
			h2.2c2.5,0,4.2-0.9,4.9-2.8l0.3,0C89.8,91,89.9,91.9,89.9,93.1z M81.6,75.2v-0.5c0-1.5-0.5-2.2-1.6-2.2c-1.1,0-1.7,0.9-1.7,2.4
			v5.2l1.9-1.6C81.1,77.9,81.6,76.7,81.6,75.2z"/>
		<path d="M109.2,54.8v3.1l-6.6,5.6v-5.7c0-1.2-0.5-1.8-1.5-1.8c-0.9,0-1.4,0.7-1.4,2.1v8.7h5.9l-2.6,6.3h-3.3V98
			c0,1.1,0.5,1.7,1.6,1.9v0.3h-9.6V54.8c0-3,1.4-4.6,4.2-4.6h9.1c1.6,0,2.7,0.3,3.3,1C108.9,52,109.2,53.2,109.2,54.8z"/>
		<path d="M123.5,100.2h-6.3c-1.8,0-2.8-1.3-3-3.9h-0.1c-0.9,2.6-2.2,3.9-3.8,3.9h-3.5c-2.7,0-4-1.2-4-3.7v-8.2
			c0-1.7,0.1-2.9,0.2-3.4c0.1-0.5,0.5-1,1-1.5l8.9-7.3c0.7-0.5,1-1.1,1-1.6v-1c0-0.6-0.3-0.9-1-0.9h-2.9c-2.3,0-4.3,0.9-5.9,2.6
			c0-0.8,0.3-1.8,0.8-2.8l1.6-3.3c0.9-1.8,2.3-2.8,4.1-2.8h7c1.4,0,2.5,0.4,3.3,1.3c0.8,0.9,1.2,2.1,1.2,3.5v23.9
			C122.1,97.5,122.6,99.2,123.5,100.2z M114,93.4v-9.9l-2,1.5c-0.7,0.5-1.1,1.5-1.1,2.8v4.2c0,0.9,0.4,1.3,1.3,1.3H114z"/>
		<path d="M136.9,66.8l-1.5,6.3h-1.9V98c0,1.1,0.5,1.7,1.6,1.9v0.3h-9.6V60.4c0-1.5-0.6-2.3-1.7-2.4v-0.2l9.7-7.5v16.5H136.9z"/>
		<path d="M159.8,100.2h-9.2V75.3c0-1.6-0.6-2.4-1.9-2.4c-1.3,0-1.9,0.8-1.9,2.5v22c0,1.3,0.6,2.2,1.7,2.6v0.2h-9.7V60.4
			c0-1.5-0.6-2.3-1.7-2.4v-0.2l9.7-7.5v18.6c1.6-1.6,3.6-2.4,6-2.4c1.6,0,2.9,0.5,3.8,1.5c1,0.9,1.5,2.3,1.5,4v25.7
			c0,1.2,0.6,2,1.7,2.5V100.2z"/>
		<path d="M180.6,93.1c0,4.8-2,7.1-5.8,7.1h-9.6c-2.7,0-4-1.3-4-3.9V70.6c0-1.2,0.4-2.1,1.2-2.8c0.8-0.7,1.8-1,3-1h11.2
			c1,0,1.9,0.3,2.6,0.9c0.7,0.7,1.1,1.6,1.1,2.7v7.2c0,1.6-0.7,3-2.2,4.2l-6.5,5.4c-1.5,1.2-2.2,2.4-2.2,3.4c0,1.6,1.2,2.4,3.6,2.4
			h2.2c2.5,0,4.2-0.9,4.9-2.8l0.3,0C180.5,91,180.6,91.9,180.6,93.1z M172.3,75.2v-0.5c0-1.5-0.5-2.2-1.6-2.2
			c-1.1,0-1.7,0.9-1.7,2.4v5.2l1.9-1.6C171.9,77.9,172.3,76.7,172.3,75.2z"/>
		<path d="M202.5,76.2l-7.5,6.9v-7.8c0-1.6-0.5-2.4-1.6-2.4c-1.2,0-1.8,0.8-1.8,2.5v22.4c0,1.2,0.5,1.9,1.6,2.1v0.3h-9.6V75.9
			c0-1.5-0.6-2.3-1.7-2.4v-0.3l9.7-7.7v3.4c1.5-1.6,3.4-2.4,5.6-2.4c3.5,0,5.3,1.7,5.3,5.1V76.2z"/>
	</g>
</g>
</svg>
